<?xml version="1.0" encoding="UTF-8" standalone="no"?><svg xmlns="http://www.w3.org/2000/svg" xmlns:xlink="http://www.w3.org/1999/xlink" contentScriptType="application/ecmascript" contentStyleType="text/css" height="744px" preserveAspectRatio="none" style="width:700px;height:744px;" version="1.1" viewBox="0 0 700 744" width="700px" zoomAndPan="magnify"><defs><filter height="300%" id="f152elx2ltdwsi" width="300%" x="-1" y="-1"><feGaussianBlur result="blurOut" stdDeviation="2.0"/><feColorMatrix in="blurOut" result="blurOut2" type="matrix" values="0 0 0 0 0 0 0 0 0 0 0 0 0 0 0 0 0 0 .4 0"/><feOffset dx="4.0" dy="4.0" in="blurOut2" result="blurOut3"/><feBlend in="SourceGraphic" in2="blurOut3" mode="normal"/></filter></defs><g><!--MD5=[3fd616f346a44cd59a91eb10b19e157c]
class User--><rect codeLine="5" fill="#FEFECE" filter="url(#f152elx2ltdwsi)" height="186.3594" id="User" style="stroke:#A80036;stroke-width:1.5;" width="203" x="83.5" y="325"/><ellipse cx="167.25" cy="341" fill="#ADD1B2" rx="11" ry="11" style="stroke:#A80036;stroke-width:1.0;"/><path d="M166.1094,341.7969 L166.1094,344.2969 L170.4375,344.2969 L170.4375,343.375 Q170.4375,342.7656 170.6719,342.5 Q170.9219,342.2344 171.2969,342.2344 Q171.6719,342.2344 171.9063,342.5 Q172.1406,342.7656 172.1406,343.375 L172.1406,346 L164.1406,346 Q163.5156,346 163.25,345.7656 Q163,345.5313 163,345.1406 Q163,344.7656 163.2656,344.5313 Q163.5313,344.2969 164.1406,344.2969 L164.4063,344.2969 L164.4063,337.6406 L164.1406,337.6406 Q163.5156,337.6406 163.25,337.4063 Q163,337.1719 163,336.7813 Q163,336.4063 163.25,336.1719 Q163.5156,335.9375 164.1406,335.9375 L171.7656,335.9375 L171.7656,338.5313 Q171.7656,339.1406 171.5313,339.4063 Q171.3125,339.6563 170.9219,339.6563 Q170.5469,339.6563 170.3125,339.4063 Q170.0781,339.1406 170.0781,338.5313 L170.0781,337.6406 L166.1094,337.6406 L166.1094,340.0938 L167.5938,340.0938 Q167.5938,339.4375 167.7188,339.25 Q167.9844,338.8438 168.4531,338.8438 Q168.8281,338.8438 169.0625,339.1094 Q169.2969,339.3594 169.2969,339.9688 L169.2969,341.9375 Q169.2969,342.4844 169.1719,342.6719 Q168.9063,343.0625 168.4531,343.0625 Q167.9844,343.0625 167.7188,342.6563 Q167.5938,342.4688 167.5938,341.7969 L166.1094,341.7969 Z " fill="#000000"/><text fill="#000000" font-family="sans-serif" font-size="12" lengthAdjust="spacing" textLength="27" x="187.75" y="345.9102">User</text><line style="stroke:#A80036;stroke-width:1.5;" x1="84.5" x2="285.5" y1="357" y2="357"/><ellipse cx="94.5" cy="368" fill="#000000" rx="3" ry="3" style="stroke:#000000;stroke-width:1.0;"/><text fill="#000000" font-family="sans-serif" font-size="11" lengthAdjust="spacing" textLength="68" x="103.5" y="372.4189">id : UUID «PK»</text><line style="stroke:#A80036;stroke-width:1.0;" x1="84.5" x2="285.5" y1="378.8359" y2="378.8359"/><ellipse cx="94.5" cy="389.8359" fill="#000000" rx="3" ry="3" style="stroke:#000000;stroke-width:1.0;"/><text fill="#000000" font-family="sans-serif" font-size="11" lengthAdjust="spacing" textLength="116" x="103.5" y="394.2549">login : varchar «unique»</text><ellipse cx="94.5" cy="403.6719" fill="#000000" rx="3" ry="3" style="stroke:#000000;stroke-width:1.0;"/><text fill="#000000" font-family="sans-serif" font-size="11" lengthAdjust="spacing" textLength="127" x="103.5" y="408.0908">password_hash : varchar</text><ellipse cx="94.5" cy="417.5078" fill="#000000" rx="3" ry="3" style="stroke:#000000;stroke-width:1.0;"/><text fill="#000000" font-family="sans-serif" font-size="11" lengthAdjust="spacing" textLength="98" x="103.5" y="421.9268">first_name : varchar</text><ellipse cx="94.5" cy="431.3438" fill="#000000" rx="3" ry="3" style="stroke:#000000;stroke-width:1.0;"/><text fill="#000000" font-family="sans-serif" font-size="11" lengthAdjust="spacing" textLength="96" x="103.5" y="435.7627">last_name : varchar</text><ellipse cx="94.5" cy="445.1797" fill="#000000" rx="3" ry="3" style="stroke:#000000;stroke-width:1.0;"/><text fill="#000000" font-family="sans-serif" font-size="11" lengthAdjust="spacing" textLength="177" x="103.5" y="449.5986">role : enum(reporter, support, admin)</text><text fill="#000000" font-family="sans-serif" font-size="11" lengthAdjust="spacing" textLength="128" x="103.5" y="463.4346">department_id : UUID «FK»</text><ellipse cx="94.5" cy="472.8516" fill="#000000" rx="3" ry="3" style="stroke:#000000;stroke-width:1.0;"/><text fill="#000000" font-family="sans-serif" font-size="11" lengthAdjust="spacing" textLength="166" x="103.5" y="477.2705">is_temporary_password : boolean</text><ellipse cx="94.5" cy="486.6875" fill="#000000" rx="3" ry="3" style="stroke:#000000;stroke-width:1.0;"/><text fill="#000000" font-family="sans-serif" font-size="11" lengthAdjust="spacing" textLength="90" x="103.5" y="491.1064">is_active : boolean</text><ellipse cx="94.5" cy="500.5234" fill="#000000" rx="3" ry="3" style="stroke:#000000;stroke-width:1.0;"/><text fill="#000000" font-family="sans-serif" font-size="11" lengthAdjust="spacing" textLength="109" x="103.5" y="504.9424">created_at : timestamp</text><!--MD5=[c50d89439a12e948b363c4efab1c487c]
class Department--><rect codeLine="19" fill="#FEFECE" filter="url(#f152elx2ltdwsi)" height="89.5078" id="Department" style="stroke:#A80036;stroke-width:1.5;" width="146" x="7" y="619.5"/><ellipse cx="44.05" cy="635.5" fill="#ADD1B2" rx="11" ry="11" style="stroke:#A80036;stroke-width:1.0;"/><path d="M42.9094,636.2969 L42.9094,638.7969 L47.2375,638.7969 L47.2375,637.875 Q47.2375,637.2656 47.4719,637 Q47.7219,636.7344 48.0969,636.7344 Q48.4719,636.7344 48.7063,637 Q48.9406,637.2656 48.9406,637.875 L48.9406,640.5 L40.9406,640.5 Q40.3156,640.5 40.05,640.2656 Q39.8,640.0313 39.8,639.6406 Q39.8,639.2656 40.0656,639.0313 Q40.3313,638.7969 40.9406,638.7969 L41.2063,638.7969 L41.2063,632.1406 L40.9406,632.1406 Q40.3156,632.1406 40.05,631.9063 Q39.8,631.6719 39.8,631.2813 Q39.8,630.9063 40.05,630.6719 Q40.3156,630.4375 40.9406,630.4375 L48.5656,630.4375 L48.5656,633.0313 Q48.5656,633.6406 48.3313,633.9063 Q48.1125,634.1563 47.7219,634.1563 Q47.3469,634.1563 47.1125,633.9063 Q46.8781,633.6406 46.8781,633.0313 L46.8781,632.1406 L42.9094,632.1406 L42.9094,634.5938 L44.3938,634.5938 Q44.3938,633.9375 44.5188,633.75 Q44.7844,633.3438 45.2531,633.3438 Q45.6281,633.3438 45.8625,633.6094 Q46.0969,633.8594 46.0969,634.4688 L46.0969,636.4375 Q46.0969,636.9844 45.9719,637.1719 Q45.7063,637.5625 45.2531,637.5625 Q44.7844,637.5625 44.5188,637.1563 Q44.3938,636.9688 44.3938,636.2969 L42.9094,636.2969 Z " fill="#000000"/><text fill="#000000" font-family="sans-serif" font-size="12" lengthAdjust="spacing" textLength="65" x="62.95" y="640.4102">Department</text><line style="stroke:#A80036;stroke-width:1.5;" x1="8" x2="152" y1="651.5" y2="651.5"/><ellipse cx="18" cy="662.5" fill="#000000" rx="3" ry="3" style="stroke:#000000;stroke-width:1.0;"/><text fill="#000000" font-family="sans-serif" font-size="11" lengthAdjust="spacing" textLength="68" x="27" y="666.9189">id : UUID «PK»</text><line style="stroke:#A80036;stroke-width:1.0;" x1="8" x2="152" y1="673.3359" y2="673.3359"/><ellipse cx="18" cy="684.3359" fill="#000000" rx="3" ry="3" style="stroke:#000000;stroke-width:1.0;"/><text fill="#000000" font-family="sans-serif" font-size="11" lengthAdjust="spacing" textLength="120" x="27" y="688.7549">name : varchar «unique»</text><ellipse cx="18" cy="698.1719" fill="#000000" rx="3" ry="3" style="stroke:#000000;stroke-width:1.0;"/><text fill="#000000" font-family="sans-serif" font-size="11" lengthAdjust="spacing" textLength="90" x="27" y="702.5908">is_active : boolean</text><!--MD5=[a96594a83e2ecdc78cbf17c2ddf01934]
class Category--><rect codeLine="26" fill="#FEFECE" filter="url(#f152elx2ltdwsi)" height="89.5078" id="Category" style="stroke:#A80036;stroke-width:1.5;" width="146" x="540" y="69"/><ellipse cx="584.25" cy="85" fill="#ADD1B2" rx="11" ry="11" style="stroke:#A80036;stroke-width:1.0;"/><path d="M583.1094,85.7969 L583.1094,88.2969 L587.4375,88.2969 L587.4375,87.375 Q587.4375,86.7656 587.6719,86.5 Q587.9219,86.2344 588.2969,86.2344 Q588.6719,86.2344 588.9063,86.5 Q589.1406,86.7656 589.1406,87.375 L589.1406,90 L581.1406,90 Q580.5156,90 580.25,89.7656 Q580,89.5313 580,89.1406 Q580,88.7656 580.2656,88.5313 Q580.5313,88.2969 581.1406,88.2969 L581.4063,88.2969 L581.4063,81.6406 L581.1406,81.6406 Q580.5156,81.6406 580.25,81.4063 Q580,81.1719 580,80.7813 Q580,80.4063 580.25,80.1719 Q580.5156,79.9375 581.1406,79.9375 L588.7656,79.9375 L588.7656,82.5313 Q588.7656,83.1406 588.5313,83.4063 Q588.3125,83.6563 587.9219,83.6563 Q587.5469,83.6563 587.3125,83.4063 Q587.0781,83.1406 587.0781,82.5313 L587.0781,81.6406 L583.1094,81.6406 L583.1094,84.0938 L584.5938,84.0938 Q584.5938,83.4375 584.7188,83.25 Q584.9844,82.8438 585.4531,82.8438 Q585.8281,82.8438 586.0625,83.1094 Q586.2969,83.3594 586.2969,83.9688 L586.2969,85.9375 Q586.2969,86.4844 586.1719,86.6719 Q585.9063,87.0625 585.4531,87.0625 Q584.9844,87.0625 584.7188,86.6563 Q584.5938,86.4688 584.5938,85.7969 L583.1094,85.7969 Z " fill="#000000"/><text fill="#000000" font-family="sans-serif" font-size="12" lengthAdjust="spacing" textLength="49" x="604.75" y="89.9102">Category</text><line style="stroke:#A80036;stroke-width:1.5;" x1="541" x2="685" y1="101" y2="101"/><ellipse cx="551" cy="112" fill="#000000" rx="3" ry="3" style="stroke:#000000;stroke-width:1.0;"/><text fill="#000000" font-family="sans-serif" font-size="11" lengthAdjust="spacing" textLength="68" x="560" y="116.4189">id : UUID «PK»</text><line style="stroke:#A80036;stroke-width:1.0;" x1="541" x2="685" y1="122.8359" y2="122.8359"/><ellipse cx="551" cy="133.8359" fill="#000000" rx="3" ry="3" style="stroke:#000000;stroke-width:1.0;"/><text fill="#000000" font-family="sans-serif" font-size="11" lengthAdjust="spacing" textLength="120" x="560" y="138.2549">name : varchar «unique»</text><ellipse cx="551" cy="147.6719" fill="#000000" rx="3" ry="3" style="stroke:#000000;stroke-width:1.0;"/><text fill="#000000" font-family="sans-serif" font-size="11" lengthAdjust="spacing" textLength="90" x="560" y="152.0908">is_active : boolean</text><!--MD5=[ac6bea31e13c94c7baa9ad18feb7405e]
class Ticket--><rect codeLine="33" fill="#FEFECE" filter="url(#f152elx2ltdwsi)" height="214.0313" id="Ticket" style="stroke:#A80036;stroke-width:1.5;" width="282" x="44" y="7"/><ellipse cx="164.75" cy="23" fill="#ADD1B2" rx="11" ry="11" style="stroke:#A80036;stroke-width:1.0;"/><path d="M163.6094,23.7969 L163.6094,26.2969 L167.9375,26.2969 L167.9375,25.375 Q167.9375,24.7656 168.1719,24.5 Q168.4219,24.2344 168.7969,24.2344 Q169.1719,24.2344 169.4063,24.5 Q169.6406,24.7656 169.6406,25.375 L169.6406,28 L161.6406,28 Q161.0156,28 160.75,27.7656 Q160.5,27.5313 160.5,27.1406 Q160.5,26.7656 160.7656,26.5313 Q161.0313,26.2969 161.6406,26.2969 L161.9063,26.2969 L161.9063,19.6406 L161.6406,19.6406 Q161.0156,19.6406 160.75,19.4063 Q160.5,19.1719 160.5,18.7813 Q160.5,18.4063 160.75,18.1719 Q161.0156,17.9375 161.6406,17.9375 L169.2656,17.9375 L169.2656,20.5313 Q169.2656,21.1406 169.0313,21.4063 Q168.8125,21.6563 168.4219,21.6563 Q168.0469,21.6563 167.8125,21.4063 Q167.5781,21.1406 167.5781,20.5313 L167.5781,19.6406 L163.6094,19.6406 L163.6094,22.0938 L165.0938,22.0938 Q165.0938,21.4375 165.2188,21.25 Q165.4844,20.8438 165.9531,20.8438 Q166.3281,20.8438 166.5625,21.1094 Q166.7969,21.3594 166.7969,21.9688 L166.7969,23.9375 Q166.7969,24.4844 166.6719,24.6719 Q166.4063,25.0625 165.9531,25.0625 Q165.4844,25.0625 165.2188,24.6563 Q165.0938,24.4688 165.0938,23.7969 L163.6094,23.7969 Z " fill="#000000"/><text fill="#000000" font-family="sans-serif" font-size="12" lengthAdjust="spacing" textLength="32" x="185.25" y="27.9102">Ticket</text><line style="stroke:#A80036;stroke-width:1.5;" x1="45" x2="325" y1="39" y2="39"/><ellipse cx="55" cy="50" fill="#000000" rx="3" ry="3" style="stroke:#000000;stroke-width:1.0;"/><text fill="#000000" font-family="sans-serif" font-size="11" lengthAdjust="spacing" textLength="68" x="64" y="54.4189">id : UUID «PK»</text><line style="stroke:#A80036;stroke-width:1.0;" x1="45" x2="325" y1="60.8359" y2="60.8359"/><ellipse cx="55" cy="71.8359" fill="#000000" rx="3" ry="3" style="stroke:#000000;stroke-width:1.0;"/><text fill="#000000" font-family="sans-serif" font-size="11" lengthAdjust="spacing" textLength="63" x="64" y="76.2549">title : varchar</text><ellipse cx="55" cy="85.6719" fill="#000000" rx="3" ry="3" style="stroke:#000000;stroke-width:1.0;"/><text fill="#000000" font-family="sans-serif" font-size="11" lengthAdjust="spacing" textLength="80" x="64" y="90.0908">description : text</text><ellipse cx="55" cy="99.5078" fill="#000000" rx="3" ry="3" style="stroke:#000000;stroke-width:1.0;"/><text fill="#000000" font-family="sans-serif" font-size="11" lengthAdjust="spacing" textLength="200" x="64" y="103.9268">status : enum(nowe, przyjete, zamkniete)</text><text fill="#000000" font-family="sans-serif" font-size="11" lengthAdjust="spacing" textLength="113" x="64" y="117.7627">reporter_id : UUID «FK»</text><text fill="#000000" font-family="sans-serif" font-size="11" lengthAdjust="spacing" textLength="133" x="64" y="131.5986">assigned_to_id : UUID «FK»</text><text fill="#000000" font-family="sans-serif" font-size="11" lengthAdjust="spacing" textLength="174" x="64" y="145.4346">suggested_category_id : UUID «FK»</text><ellipse cx="55" cy="154.8516" fill="#000000" rx="3" ry="3" style="stroke:#000000;stroke-width:1.0;"/><text fill="#000000" font-family="sans-serif" font-size="11" lengthAdjust="spacing" textLength="256" x="64" y="159.2705">suggested_priority : enum(low, medium, high, critical)</text><text fill="#000000" font-family="sans-serif" font-size="11" lengthAdjust="spacing" textLength="117" x="64" y="173.1064">category_id : UUID «FK»</text><text fill="#000000" font-family="sans-serif" font-size="11" lengthAdjust="spacing" textLength="199" x="64" y="186.9424">priority : enum(low, medium, high, critical)</text><ellipse cx="55" cy="196.3594" fill="#000000" rx="3" ry="3" style="stroke:#000000;stroke-width:1.0;"/><text fill="#000000" font-family="sans-serif" font-size="11" lengthAdjust="spacing" textLength="109" x="64" y="200.7783">created_at : timestamp</text><ellipse cx="55" cy="210.1953" fill="#000000" rx="3" ry="3" style="stroke:#000000;stroke-width:1.0;"/><text fill="#000000" font-family="sans-serif" font-size="11" lengthAdjust="spacing" textLength="111" x="64" y="214.6143">updated_at : timestamp</text><!--MD5=[717906f5578eb2fc29e48fa2044c46f6]
class RefreshToken--><rect codeLine="49" fill="#FEFECE" filter="url(#f152elx2ltdwsi)" height="131.0156" id="RefreshToken" style="stroke:#A80036;stroke-width:1.5;" width="135" x="223.5" y="599"/><ellipse cx="249.75" cy="615" fill="#ADD1B2" rx="11" ry="11" style="stroke:#A80036;stroke-width:1.0;"/><path d="M248.6094,615.7969 L248.6094,618.2969 L252.9375,618.2969 L252.9375,617.375 Q252.9375,616.7656 253.1719,616.5 Q253.4219,616.2344 253.7969,616.2344 Q254.1719,616.2344 254.4063,616.5 Q254.6406,616.7656 254.6406,617.375 L254.6406,620 L246.6406,620 Q246.0156,620 245.75,619.7656 Q245.5,619.5313 245.5,619.1406 Q245.5,618.7656 245.7656,618.5313 Q246.0313,618.2969 246.6406,618.2969 L246.9063,618.2969 L246.9063,611.6406 L246.6406,611.6406 Q246.0156,611.6406 245.75,611.4063 Q245.5,611.1719 245.5,610.7813 Q245.5,610.4063 245.75,610.1719 Q246.0156,609.9375 246.6406,609.9375 L254.2656,609.9375 L254.2656,612.5313 Q254.2656,613.1406 254.0313,613.4063 Q253.8125,613.6563 253.4219,613.6563 Q253.0469,613.6563 252.8125,613.4063 Q252.5781,613.1406 252.5781,612.5313 L252.5781,611.6406 L248.6094,611.6406 L248.6094,614.0938 L250.0938,614.0938 Q250.0938,613.4375 250.2188,613.25 Q250.4844,612.8438 250.9531,612.8438 Q251.3281,612.8438 251.5625,613.1094 Q251.7969,613.3594 251.7969,613.9688 L251.7969,615.9375 Q251.7969,616.4844 251.6719,616.6719 Q251.4063,617.0625 250.9531,617.0625 Q250.4844,617.0625 250.2188,616.6563 Q250.0938,616.4688 250.0938,615.7969 L248.6094,615.7969 Z " fill="#000000"/><text fill="#000000" font-family="sans-serif" font-size="12" lengthAdjust="spacing" textLength="78" x="266.25" y="619.9102">RefreshToken</text><line style="stroke:#A80036;stroke-width:1.5;" x1="224.5" x2="357.5" y1="631" y2="631"/><ellipse cx="234.5" cy="642" fill="#000000" rx="3" ry="3" style="stroke:#000000;stroke-width:1.0;"/><text fill="#000000" font-family="sans-serif" font-size="11" lengthAdjust="spacing" textLength="68" x="243.5" y="646.4189">id : UUID «PK»</text><line style="stroke:#A80036;stroke-width:1.0;" x1="224.5" x2="357.5" y1="652.8359" y2="652.8359"/><ellipse cx="234.5" cy="663.8359" fill="#000000" rx="3" ry="3" style="stroke:#000000;stroke-width:1.0;"/><text fill="#000000" font-family="sans-serif" font-size="11" lengthAdjust="spacing" textLength="96" x="243.5" y="668.2549">user_id : UUID «FK»</text><ellipse cx="234.5" cy="677.6719" fill="#000000" rx="3" ry="3" style="stroke:#000000;stroke-width:1.0;"/><text fill="#000000" font-family="sans-serif" font-size="11" lengthAdjust="spacing" textLength="103" x="243.5" y="682.0908">token_hash : varchar</text><ellipse cx="234.5" cy="691.5078" fill="#000000" rx="3" ry="3" style="stroke:#000000;stroke-width:1.0;"/><text fill="#000000" font-family="sans-serif" font-size="11" lengthAdjust="spacing" textLength="108" x="243.5" y="695.9268">expires_at : timestamp</text><ellipse cx="234.5" cy="705.3438" fill="#000000" rx="3" ry="3" style="stroke:#000000;stroke-width:1.0;"/><text fill="#000000" font-family="sans-serif" font-size="11" lengthAdjust="spacing" textLength="86" x="243.5" y="709.7627">revoked : boolean</text><ellipse cx="234.5" cy="719.1797" fill="#000000" rx="3" ry="3" style="stroke:#000000;stroke-width:1.0;"/><text fill="#000000" font-family="sans-serif" font-size="11" lengthAdjust="spacing" textLength="109" x="243.5" y="723.5986">created_at : timestamp</text><!--MD5=[56f7bd521ab98799df4f5d0865174545]
link User to Department--><path codeLine="59" d="M142.26,518.52 C128.5,550.57 113.81,584.77 102.16,611.9 " fill="none" id="User-Department" style="stroke:#A80036;stroke-width:1.0;"/><line style="stroke:#A80036;stroke-width:1.0;" x1="104.2147" x2="96.8653" y1="617.2653" y2="614.1053"/><line style="stroke:#A80036;stroke-width:1.0;" x1="105.3997" x2="98.0503" y1="614.5092" y2="611.3492"/><line style="stroke:#A80036;stroke-width:1.0;" x1="102.12" x2="98.96" y1="612.0105" y2="619.36"/><line style="stroke:#A80036;stroke-width:1.0;" x1="142.2952" x2="139.9362" y1="518.4417" y2="508.7239"/><line style="stroke:#A80036;stroke-width:1.0;" x1="142.2952" x2="150.9638" y1="518.4417" y2="513.4561"/><line style="stroke:#A80036;stroke-width:1.0;" x1="142.2952" x2="145.45" y1="518.4417" y2="511.09"/><ellipse cx="139.9291" cy="523.9554" fill="none" rx="4" ry="4" style="stroke:#A80036;stroke-width:1.0;"/><text fill="#000000" font-family="sans-serif" font-size="13" lengthAdjust="spacing" textLength="56" x="131" y="560.4951">należy do</text><!--MD5=[f1e08eb9380522146fd493b5d30e7f59]
link User to RefreshToken--><path codeLine="60" d="M228.21,518.67 C238.75,542.99 249.83,568.54 259.7,591.29 " fill="none" id="User-RefreshToken" style="stroke:#A80036;stroke-width:1.0;"/><line style="stroke:#A80036;stroke-width:1.0;" x1="259.8059" x2="268.4943" y1="591.5609" y2="596.512"/><line style="stroke:#A80036;stroke-width:1.0;" x1="259.8059" x2="257.4857" y1="591.5609" y2="601.288"/><line style="stroke:#A80036;stroke-width:1.0;" x1="259.8059" x2="262.99" y1="591.5609" y2="598.9"/><ellipse cx="257.4179" cy="586.0567" fill="none" rx="4" ry="4" style="stroke:#A80036;stroke-width:1.0;"/><line style="stroke:#A80036;stroke-width:1.0;" x1="222.8462" x2="230.183" y1="516.353" y2="513.1638"/><line style="stroke:#A80036;stroke-width:1.0;" x1="224.0422" x2="231.379" y1="519.1043" y2="515.915"/><line style="stroke:#A80036;stroke-width:1.0;" x1="228.1093" x2="224.92" y1="518.4268" y2="511.09"/><text fill="#000000" font-family="sans-serif" font-size="13" lengthAdjust="spacing" textLength="45" x="249" y="560.4951">posiada</text><!--MD5=[f177e8a7d8f4445411d192bfe0ac99a9]
link Ticket to User--><path codeLine="62" d="M98.06,228.42 C93.7,237.45 89.92,246.68 87,256 C80.45,276.9 84.03,297.89 92.88,317.47 " fill="none" id="Ticket-User" style="stroke:#A80036;stroke-width:1.0;"/><line style="stroke:#A80036;stroke-width:1.0;" x1="98.3574" x2="91.1764" y1="319.5564" y2="323.0826"/><line style="stroke:#A80036;stroke-width:1.0;" x1="97.035" x2="89.8541" y1="316.8636" y2="320.3898"/><line style="stroke:#A80036;stroke-width:1.0;" x1="93.0038" x2="96.53" y1="317.7291" y2="324.91"/><line style="stroke:#A80036;stroke-width:1.0;" x1="98.0852" x2="96.3199" y1="228.3668" y2="218.5239"/><line style="stroke:#A80036;stroke-width:1.0;" x1="98.0852" x2="107.0401" y1="228.3668" y2="223.9161"/><line style="stroke:#A80036;stroke-width:1.0;" x1="98.0852" x2="101.68" y1="228.3668" y2="221.22"/><ellipse cx="95.3891" cy="233.727" fill="none" rx="4" ry="4" style="stroke:#A80036;stroke-width:1.0;"/><text fill="#000000" font-family="sans-serif" font-size="13" lengthAdjust="spacing" textLength="95" x="88" y="270.4951">zgłoszone przez</text><text fill="#000000" font-family="sans-serif" font-size="13" lengthAdjust="spacing" textLength="69" x="101" y="286.8467">(reporter_id)</text><!--MD5=[f177e8a7d8f4445411d192bfe0ac99a9]
link Ticket to User--><path codeLine="63" d="M196.65,229.38 C197.62,249.57 197.92,270.4 197,290 C196.59,298.64 196.03,307.6 195.37,316.57 " fill="none" id="Ticket-User-1" style="stroke:#A80036;stroke-width:1.0;"/><line style="stroke:#A80036;stroke-width:1.0;" x1="195.5656" x2="194.74" y1="313.851" y2="324.82"/><ellipse cx="195.5656" cy="313.851" fill="none" rx="4" ry="4" style="stroke:#A80036;stroke-width:1.0;"/><line style="stroke:#A80036;stroke-width:1.0;" x1="199.0289" x2="191.0515" y1="321.1315" y2="320.5311"/><line style="stroke:#A80036;stroke-width:1.0;" x1="196.6445" x2="190.2381" y1="229.3693" y2="221.6909"/><line style="stroke:#A80036;stroke-width:1.0;" x1="196.6445" x2="202.2219" y1="229.3693" y2="221.0691"/><line style="stroke:#A80036;stroke-width:1.0;" x1="196.6445" x2="196.23" y1="229.3693" y2="221.38"/><ellipse cx="196.9553" cy="235.3612" fill="none" rx="4" ry="4" style="stroke:#A80036;stroke-width:1.0;"/><text fill="#000000" font-family="sans-serif" font-size="13" lengthAdjust="spacing" textLength="81" x="206" y="270.4951">przypisane do</text><text fill="#000000" font-family="sans-serif" font-size="13" lengthAdjust="spacing" textLength="95" x="199" y="286.8467">(assigned_to_id)</text><!--MD5=[256fd5f2e14ae485e368427206b72656]
link Ticket to Category--><path codeLine="64" d="M334.34,147.9 C381.31,154.48 433.35,157.55 481,151 C497.62,148.72 515.09,144.88 531.68,140.53 " fill="none" id="Ticket-Category" style="stroke:#A80036;stroke-width:1.0;"/><line style="stroke:#A80036;stroke-width:1.0;" x1="529.1263" x2="539.75" y1="141.2127" y2="138.36"/><ellipse cx="529.1263" cy="141.2127" fill="none" rx="4" ry="4" style="stroke:#A80036;stroke-width:1.0;"/><line style="stroke:#A80036;stroke-width:1.0;" x1="534.8495" x2="536.9242" y1="135.5342" y2="143.2605"/><line style="stroke:#A80036;stroke-width:1.0;" x1="334.1658" x2="325.382" y1="147.8874" y2="152.6669"/><line style="stroke:#A80036;stroke-width:1.0;" x1="334.1658" x2="327.118" y1="147.8874" y2="140.7931"/><line style="stroke:#A80036;stroke-width:1.0;" x1="334.1658" x2="326.25" y1="147.8874" y2="146.73"/><ellipse cx="340.1027" cy="148.7554" fill="none" rx="4" ry="4" style="stroke:#A80036;stroke-width:1.0;"/><text fill="#000000" font-family="sans-serif" font-size="13" lengthAdjust="spacing" textLength="94" x="386" y="131.4951">kategoria finalna</text><text fill="#000000" font-family="sans-serif" font-size="13" lengthAdjust="spacing" textLength="75" x="395.5" y="147.8467">(category_id)</text><!--MD5=[256fd5f2e14ae485e368427206b72656]
link Ticket to Category--><path codeLine="65" d="M334.04,114 C400.44,114 476.06,114 531.8,114 " fill="none" id="Ticket-Category-1" style="stroke:#A80036;stroke-width:1.0;"/><line style="stroke:#A80036;stroke-width:1.0;" x1="528.88" x2="539.88" y1="114" y2="114"/><ellipse cx="528.88" cy="114" fill="none" rx="4" ry="4" style="stroke:#A80036;stroke-width:1.0;"/><line style="stroke:#A80036;stroke-width:1.0;" x1="535.88" x2="535.88" y1="110" y2="118"/><line style="stroke:#A80036;stroke-width:1.0;" x1="334.03" x2="326.03" y1="114" y2="120"/><line style="stroke:#A80036;stroke-width:1.0;" x1="334.03" x2="326.03" y1="114" y2="108"/><line style="stroke:#A80036;stroke-width:1.0;" x1="334.03" x2="326.03" y1="114" y2="114"/><ellipse cx="340.03" cy="114" fill="none" rx="4" ry="4" style="stroke:#A80036;stroke-width:1.0;"/><text fill="#000000" font-family="sans-serif" font-size="13" lengthAdjust="spacing" textLength="78" x="394" y="91.4951">sugestia LLM</text><text fill="#000000" font-family="sans-serif" font-size="13" lengthAdjust="spacing" textLength="142" x="362" y="107.8467">(suggested_category_id)</text><!--MD5=[6918213cd3f69ef54b45a0ffffd6213a]
@startuml
' Zwiększamy odstępy, by etykiety miały miejsce
skinparam nodesep 70
skinparam ranksep 70

entity "User" as User {
  * id : UUID <<PK>>
  - -
  * login : varchar <<unique>>
  * password_hash : varchar
  * first_name : varchar
  * last_name : varchar
  * role : enum(reporter, support, admin)
  department_id : UUID <<FK>>
  * is_temporary_password : boolean
  * is_active : boolean
  * created_at : timestamp
}

entity "Department" as Department {
  * id : UUID <<PK>>
  - -
  * name : varchar <<unique>>
  * is_active : boolean
}

entity "Category" as Category {
  * id : UUID <<PK>>
  - -
  * name : varchar <<unique>>
  * is_active : boolean
}

entity "Ticket" as Ticket {
  * id : UUID <<PK>>
  - -
  * title : varchar
  * description : text
  * status : enum(nowe, przyjete, zamkniete)
  reporter_id : UUID <<FK>>
  assigned_to_id : UUID <<FK>>
  suggested_category_id : UUID <<FK>>
  * suggested_priority : enum(low, medium, high, critical)
  category_id : UUID <<FK>>
  priority : enum(low, medium, high, critical)
  * created_at : timestamp
  * updated_at : timestamp
}

entity "RefreshToken" as RefreshToken {
  * id : UUID <<PK>>
  - -
  * user_id : UUID <<FK>>
  * token_hash : varchar
  * expires_at : timestamp
  * revoked : boolean
  * created_at : timestamp
}

User }o-down-|| Department : "należy do"
User ||-down-o{ RefreshToken : "posiada"

Ticket }o-down-|| User : "zgłoszone przez\n(reporter_id)"
Ticket }o-down-o| User : "przypisane do\n(assigned_to_id)"
Ticket }o-right-o| Category : "kategoria finalna\n(category_id)"
Ticket }o-right-o| Category : "sugestia LLM\n(suggested_category_id)"

@enduml

@startuml
skinparam nodesep 70
skinparam ranksep 70

entity "User" as User {
  * id : UUID <<PK>>
  - -
  * login : varchar <<unique>>
  * password_hash : varchar
  * first_name : varchar
  * last_name : varchar
  * role : enum(reporter, support, admin)
  department_id : UUID <<FK>>
  * is_temporary_password : boolean
  * is_active : boolean
  * created_at : timestamp
}

entity "Department" as Department {
  * id : UUID <<PK>>
  - -
  * name : varchar <<unique>>
  * is_active : boolean
}

entity "Category" as Category {
  * id : UUID <<PK>>
  - -
  * name : varchar <<unique>>
  * is_active : boolean
}

entity "Ticket" as Ticket {
  * id : UUID <<PK>>
  - -
  * title : varchar
  * description : text
  * status : enum(nowe, przyjete, zamkniete)
  reporter_id : UUID <<FK>>
  assigned_to_id : UUID <<FK>>
  suggested_category_id : UUID <<FK>>
  * suggested_priority : enum(low, medium, high, critical)
  category_id : UUID <<FK>>
  priority : enum(low, medium, high, critical)
  * created_at : timestamp
  * updated_at : timestamp
}

entity "RefreshToken" as RefreshToken {
  * id : UUID <<PK>>
  - -
  * user_id : UUID <<FK>>
  * token_hash : varchar
  * expires_at : timestamp
  * revoked : boolean
  * created_at : timestamp
}

User }o-down-|| Department : "należy do"
User ||-down-o{ RefreshToken : "posiada"

Ticket }o-down-|| User : "zgłoszone przez\n(reporter_id)"
Ticket }o-down-o| User : "przypisane do\n(assigned_to_id)"
Ticket }o-right-o| Category : "kategoria finalna\n(category_id)"
Ticket }o-right-o| Category : "sugestia LLM\n(suggested_category_id)"

@enduml

PlantUML version 1.2021.00(Sun Jan 10 11:25:05 CET 2021)
(MIT source distribution)
Java Runtime: Java(TM) SE Runtime Environment
JVM: Java HotSpot(TM) 64-Bit Server VM
Default Encoding: UTF-8
Language: pl
Country: PL
--></g></svg>