<?xml version="1.0" encoding="UTF-8" standalone="no"?><svg xmlns="http://www.w3.org/2000/svg" xmlns:xlink="http://www.w3.org/1999/xlink" contentScriptType="application/ecmascript" contentStyleType="text/css" height="1727px" preserveAspectRatio="none" style="width:1925px;height:1727px;" version="1.1" viewBox="0 0 1925 1727" width="1925px" zoomAndPan="magnify"><defs><filter height="300%" id="f1vwnam93sz0af" width="300%" x="-1" y="-1"><feGaussianBlur result="blurOut" stdDeviation="2.0"/><feColorMatrix in="blurOut" result="blurOut2" type="matrix" values="0 0 0 0 0 0 0 0 0 0 0 0 0 0 0 0 0 0 .4 0"/><feOffset dx="4.0" dy="4.0" in="blurOut2" result="blurOut3"/><feBlend in="SourceGraphic" in2="blurOut3" mode="normal"/></filter></defs><g><!--MD5=[cafa1a45af5f2bd91e0322513e081e4b]
cluster HelpDesk System--><rect fill="#FFFFFF" filter="url(#f1vwnam93sz0af)" height="1708" style="stroke:#000000;stroke-width:1.5;" width="1209" x="527" y="7"/><text fill="#000000" font-family="sans-serif" font-size="14" font-weight="bold" lengthAdjust="spacing" textLength="121" x="1071" y="23.5332">HelpDesk System</text><ellipse cx="790.3279" cy="1565.9033" fill="#FEFECE" filter="url(#f1vwnam93sz0af)" rx="110.3279" ry="41.4033" style="stroke:#A80036;stroke-width:1.5;"/><text fill="#000000" font-family="sans-serif" font-size="14" lengthAdjust="spacing" textLength="68" x="746.8188" y="1544.9065">Logowanie</text><line style="stroke:#A80036;stroke-width:1.0;" x1="691.8701" x2="888.7858" y1="1547.9826" y2="1547.9826"/><text fill="#000000" font-family="sans-serif" font-size="14" lengthAdjust="spacing" textLength="102" x="729.8188" y="1566.5158">extension points</text><text fill="#000000" font-family="sans-serif" font-size="14" lengthAdjust="spacing" textLength="158" x="701.8188" y="1584.1252">wymuszona zmiana hasła</text><ellipse cx="1550.0042" cy="1566.0008" fill="#FEFECE" filter="url(#f1vwnam93sz0af)" rx="100.5042" ry="22.5008" style="stroke:#A80036;stroke-width:1.5;"/><text fill="#000000" font-family="sans-serif" font-size="14" lengthAdjust="spacing" textLength="162" x="1469.0042" y="1569.7293">Wymuszona zmiana hasła</text><ellipse cx="790.4277" cy="1659.0855" fill="#FEFECE" filter="url(#f1vwnam93sz0af)" rx="68.4277" ry="16.0855" style="stroke:#A80036;stroke-width:1.5;"/><text fill="#000000" font-family="sans-serif" font-size="14" lengthAdjust="spacing" textLength="83" x="745.9277" y="1663.6021">Wylogowanie</text><ellipse cx="790.5211" cy="1320.1423" fill="#FEFECE" filter="url(#f1vwnam93sz0af)" rx="140.5211" ry="53.6423" style="stroke:#A80036;stroke-width:1.5;"/><text fill="#000000" font-family="sans-serif" font-size="14" lengthAdjust="spacing" textLength="201" x="691.1497" y="1300.1339">Przeglądanie własnych zgłoszeń</text><line style="stroke:#A80036;stroke-width:1.0;" x1="658.1841" x2="922.8581" y1="1303.21" y2="1303.21"/><text fill="#000000" font-family="sans-serif" font-size="14" lengthAdjust="spacing" textLength="102" x="740.6497" y="1321.7432">extension points</text><text fill="#000000" font-family="sans-serif" font-size="14" lengthAdjust="spacing" textLength="63" x="760.1497" y="1339.3526">filtrowanie</text><text fill="#000000" font-family="sans-serif" font-size="14" lengthAdjust="spacing" textLength="68" x="757.6497" y="1356.962">sortowanie</text><ellipse cx="790.347" cy="1433.1694" fill="#FEFECE" filter="url(#f1vwnam93sz0af)" rx="111.347" ry="24.6694" style="stroke:#A80036;stroke-width:1.5;"/><text fill="#000000" font-family="sans-serif" font-size="14" lengthAdjust="spacing" textLength="186" x="697.347" y="1436.8979">Tworzenie nowego zgłoszenia</text><ellipse cx="1549.9478" cy="1436.0896" fill="#FEFECE" filter="url(#f1vwnam93sz0af)" rx="145.9478" ry="31.5896" style="stroke:#A80036;stroke-width:1.5;"/><text fill="#000000" font-family="sans-serif" font-size="14" lengthAdjust="spacing" textLength="260" x="1419.9478" y="1439.8181">Predykcja kategorii i priorytetu zgłoszenia</text><ellipse cx="1549.8478" cy="1349.8696" fill="#FEFECE" filter="url(#f1vwnam93sz0af)" rx="84.8478" ry="19.3696" style="stroke:#A80036;stroke-width:1.5;"/><text fill="#000000" font-family="sans-serif" font-size="14" lengthAdjust="spacing" textLength="126" x="1486.8478" y="1353.5981">Filtrowanie zgłoszeń</text><ellipse cx="1550.1926" cy="1276.0385" fill="#FEFECE" filter="url(#f1vwnam93sz0af)" rx="85.6926" ry="19.5385" style="stroke:#A80036;stroke-width:1.5;"/><text fill="#000000" font-family="sans-serif" font-size="14" lengthAdjust="spacing" textLength="128" x="1486.1926" y="1279.767">Sortowanie zgłoszeń</text><ellipse cx="790.2704" cy="812.1479" fill="#FEFECE" filter="url(#f1vwnam93sz0af)" rx="223.2704" ry="52.6479" style="stroke:#A80036;stroke-width:1.5;"/><text fill="#000000" font-family="sans-serif" font-size="14" lengthAdjust="spacing" textLength="336" x="622.4329" y="794.1905">Przeglądanie zgłoszeń (w tym przypisanych do siebie)</text><line style="stroke:#A80036;stroke-width:1.0;" x1="577.1046" x2="1003.4363" y1="797.2667" y2="797.2667"/><text fill="#000000" font-family="sans-serif" font-size="14" lengthAdjust="spacing" textLength="102" x="739.4329" y="815.7999">extension points</text><text fill="#000000" font-family="sans-serif" font-size="14" lengthAdjust="spacing" textLength="63" x="758.9329" y="833.4093">filtrowanie</text><text fill="#000000" font-family="sans-serif" font-size="14" lengthAdjust="spacing" textLength="68" x="756.4329" y="851.0187">sortowanie</text><ellipse cx="790.6965" cy="920.2393" fill="#FEFECE" filter="url(#f1vwnam93sz0af)" rx="91.6965" ry="20.7393" style="stroke:#A80036;stroke-width:1.5;"/><text fill="#000000" font-family="sans-serif" font-size="14" lengthAdjust="spacing" textLength="142" x="719.6965" y="923.9678">Przypinanie zgłoszenia</text><ellipse cx="1549.8975" cy="931.1795" fill="#FEFECE" filter="url(#f1vwnam93sz0af)" rx="101.3975" ry="22.6795" style="stroke:#A80036;stroke-width:1.5;"/><text fill="#000000" font-family="sans-serif" font-size="14" lengthAdjust="spacing" textLength="164" x="1467.8975" y="934.908">Weryfikacja predykcji LLM</text><ellipse cx="790.3449" cy="998.769" fill="#FEFECE" filter="url(#f1vwnam93sz0af)" rx="101.8449" ry="22.769" style="stroke:#A80036;stroke-width:1.5;"/><text fill="#000000" font-family="sans-serif" font-size="14" lengthAdjust="spacing" textLength="165" x="707.8449" y="1002.4975">Zmiana statusu zgłoszenia</text><ellipse cx="790.6819" cy="1075.1364" fill="#FEFECE" filter="url(#f1vwnam93sz0af)" rx="78.6819" ry="18.1364" style="stroke:#A80036;stroke-width:1.5;"/><text fill="#000000" font-family="sans-serif" font-size="14" lengthAdjust="spacing" textLength="111" x="733.5947" y="1079.3083">Edycja zgłoszenia</text><ellipse cx="790.5185" cy="1163.8037" fill="#FEFECE" filter="url(#f1vwnam93sz0af)" rx="167.0185" ry="35.8037" style="stroke:#A80036;stroke-width:1.5;"/><text fill="#000000" font-family="sans-serif" font-size="14" lengthAdjust="spacing" textLength="304" x="638.5185" y="1167.5322">Usuwanie przypisanego, zamkniętego zgłoszenia</text><ellipse cx="1550.0408" cy="854.2082" fill="#FEFECE" filter="url(#f1vwnam93sz0af)" rx="86.5408" ry="19.7082" style="stroke:#A80036;stroke-width:1.5;"/><text fill="#000000" font-family="sans-serif" font-size="14" lengthAdjust="spacing" textLength="126" x="1485.0408" y="857.9367">Filtrowanie zgłoszeń</text><ellipse cx="1549.8923" cy="778.8785" fill="#FEFECE" filter="url(#f1vwnam93sz0af)" rx="87.3923" ry="19.8785" style="stroke:#A80036;stroke-width:1.5;"/><text fill="#000000" font-family="sans-serif" font-size="14" lengthAdjust="spacing" textLength="128" x="1483.8923" y="782.607">Sortowanie zgłoszeń</text><ellipse cx="790.5226" cy="91.8045" fill="#FEFECE" filter="url(#f1vwnam93sz0af)" rx="109.5226" ry="24.3045" style="stroke:#A80036;stroke-width:1.5;"/><text fill="#000000" font-family="sans-serif" font-size="14" lengthAdjust="spacing" textLength="182" x="699.5226" y="95.533">Tworzenie konta użytkownika</text><ellipse cx="790.613" cy="173.8226" fill="#FEFECE" filter="url(#f1vwnam93sz0af)" rx="99.613" ry="22.3226" style="stroke:#A80036;stroke-width:1.5;"/><text fill="#000000" font-family="sans-serif" font-size="14" lengthAdjust="spacing" textLength="160" x="710.613" y="177.5511">Edycja konta użytkownika</text><ellipse cx="790.7046" cy="255.9409" fill="#FEFECE" filter="url(#f1vwnam93sz0af)" rx="107.7046" ry="23.9409" style="stroke:#A80036;stroke-width:1.5;"/><text fill="#000000" font-family="sans-serif" font-size="14" lengthAdjust="spacing" textLength="178" x="701.7046" y="259.6694">Usuwanie konta użytkownika</text><ellipse cx="790.2614" cy="339.8523" fill="#FEFECE" filter="url(#f1vwnam93sz0af)" rx="112.2614" ry="24.8523" style="stroke:#A80036;stroke-width:1.5;"/><text fill="#000000" font-family="sans-serif" font-size="14" lengthAdjust="spacing" textLength="188" x="696.2614" y="343.5808">Przeglądanie panelu statystyk</text><ellipse cx="790.3554" cy="425.7711" fill="#FEFECE" filter="url(#f1vwnam93sz0af)" rx="116.8554" ry="25.7711" style="stroke:#A80036;stroke-width:1.5;"/><text fill="#000000" font-family="sans-serif" font-size="14" lengthAdjust="spacing" textLength="198" x="691.3554" y="429.4996">Przeglądanie listy użytkowników</text><ellipse cx="790.3762" cy="513.9752" fill="#FEFECE" filter="url(#f1vwnam93sz0af)" rx="122.8762" ry="26.9752" style="stroke:#A80036;stroke-width:1.5;"/><text fill="#000000" font-family="sans-serif" font-size="14" lengthAdjust="spacing" textLength="211" x="684.8762" y="517.7038">Zarządzanie kategoriami zgłoszeń</text><ellipse cx="790.5408" cy="596.2082" fill="#FEFECE" filter="url(#f1vwnam93sz0af)" rx="86.5408" ry="19.7082" style="stroke:#A80036;stroke-width:1.5;"/><text fill="#000000" font-family="sans-serif" font-size="14" lengthAdjust="spacing" textLength="130" x="725.5408" y="599.9367">Zarządzanie działami</text><ellipse cx="790.7402" cy="677.048" fill="#FEFECE" filter="url(#f1vwnam93sz0af)" rx="118.2402" ry="26.048" style="stroke:#A80036;stroke-width:1.5;"/><text fill="#000000" font-family="sans-serif" font-size="14" lengthAdjust="spacing" textLength="201" x="690.2402" y="680.7766">Usuwanie dowolnego zgłoszenia</text><!--MD5=[fee662a292a0353a69bd162820bae93b]
entity User--><ellipse cx="79" cy="1438.1094" fill="#FEFECE" filter="url(#f1vwnam93sz0af)" rx="8" ry="8" style="stroke:#A80036;stroke-width:1.5;"/><path d="M79,1446.1094 L79,1473.1094 M66,1454.1094 L92,1454.1094 M79,1473.1094 L66,1488.1094 M79,1473.1094 L92,1488.1094 " fill="none" filter="url(#f1vwnam93sz0af)" style="stroke:#A80036;stroke-width:1.5;"/><text fill="#000000" font-family="sans-serif" font-size="14" lengthAdjust="spacing" textLength="146" x="6" y="1508.1426">Zalogowany użytkownik</text><text fill="#000000" font-family="sans-serif" font-size="14" font-style="italic" lengthAdjust="spacing" textLength="67" x="45.5" y="1425.5332">«abstract»</text><!--MD5=[53a2745812bda411204a62592909d9d2]
entity Reporter--><ellipse cx="241" cy="1307" fill="#FEFECE" filter="url(#f1vwnam93sz0af)" rx="8" ry="8" style="stroke:#A80036;stroke-width:1.5;"/><path d="M241,1315 L241,1342 M228,1323 L254,1323 M241,1342 L228,1357 M241,1342 L254,1357 " fill="none" filter="url(#f1vwnam93sz0af)" style="stroke:#A80036;stroke-width:1.5;"/><text fill="#000000" font-family="sans-serif" font-size="14" lengthAdjust="spacing" textLength="56" x="213" y="1377.0332">Reporter</text><!--MD5=[dc940eea49c2d440088659cde7c4166e]
entity Support--><ellipse cx="355" cy="967" fill="#FEFECE" filter="url(#f1vwnam93sz0af)" rx="8" ry="8" style="stroke:#A80036;stroke-width:1.5;"/><path d="M355,975 L355,1002 M342,983 L368,983 M355,1002 L342,1017 M355,1002 L368,1017 " fill="none" filter="url(#f1vwnam93sz0af)" style="stroke:#A80036;stroke-width:1.5;"/><text fill="#000000" font-family="sans-serif" font-size="14" lengthAdjust="spacing" textLength="50" x="330" y="1037.0332">Support</text><!--MD5=[97ab183161fd5d1db7fba7485cf76add]
entity Admin--><ellipse cx="460.5" cy="438" fill="#FEFECE" filter="url(#f1vwnam93sz0af)" rx="8" ry="8" style="stroke:#A80036;stroke-width:1.5;"/><path d="M460.5,446 L460.5,473 M447.5,454 L473.5,454 M460.5,473 L447.5,488 M460.5,473 L473.5,488 " fill="none" filter="url(#f1vwnam93sz0af)" style="stroke:#A80036;stroke-width:1.5;"/><text fill="#000000" font-family="sans-serif" font-size="14" lengthAdjust="spacing" textLength="39" x="441" y="508.0332">Admin</text><!--MD5=[762d9b1ee2eb630aa40151fb5f0602e7]
entity LLM--><ellipse cx="1850.5" cy="1413.1094" fill="#FEFECE" filter="url(#f1vwnam93sz0af)" rx="8" ry="8" style="stroke:#A80036;stroke-width:1.5;"/><path d="M1850.5,1421.1094 L1850.5,1448.1094 M1837.5,1429.1094 L1863.5,1429.1094 M1850.5,1448.1094 L1837.5,1463.1094 M1850.5,1448.1094 L1863.5,1463.1094 " fill="none" filter="url(#f1vwnam93sz0af)" style="stroke:#A80036;stroke-width:1.5;"/><text fill="#000000" font-family="sans-serif" font-size="14" lengthAdjust="spacing" textLength="27" x="1837" y="1483.1426">LLM</text><text fill="#000000" font-family="sans-serif" font-size="14" font-style="italic" lengthAdjust="spacing" textLength="135" x="1783" y="1400.5332">«system zewnętrzny»</text><!--MD5=[0c89217578b2e5c90ba33d0160dae0b3]
reverse link User to Reporter--><path d="M162.07,1398.42 C180.43,1384.42 198.64,1370.54 212.84,1359.71 " fill="none" id="User-backto-Reporter" style="stroke:#A80036;stroke-width:1.0;"/><polygon fill="none" points="166.15,1404.11,146,1410.67,157.66,1392.98,166.15,1404.11" style="stroke:#A80036;stroke-width:1.0;"/><!--MD5=[e243c39b650d02afad9e3c91aa92c7cc]
reverse link User to Support--><path d="M120.06,1393.45 C177.86,1296 282.84,1118.98 329.97,1039.52 " fill="none" id="User-backto-Support" style="stroke:#A80036;stroke-width:1.0;"/><polygon fill="none" points="126.07,1397.05,109.84,1410.68,114.03,1389.91,126.07,1397.05" style="stroke:#A80036;stroke-width:1.0;"/><!--MD5=[fb6bb3babf509e51c26342083fa5dfe4]
reverse link Support to Admin--><path d="M369.8,937.46 C392.25,828.37 435.87,604.71 452.67,511.65 " fill="none" id="Support-backto-Admin" style="stroke:#A80036;stroke-width:1.0;"/><polygon fill="none" points="376.65,938.9,365.74,957.06,362.94,936.06,376.65,938.9" style="stroke:#A80036;stroke-width:1.0;"/><!--MD5=[bfabc85cf8e1d547105ec4b88c6bd7b1]
link Support to Admin--><!--MD5=[474bd93163ca9ea030dd8c0b592606f2]
link Reporter to Support--><!--MD5=[728062bbc6246d38cc92b82c3016fbb7]
link User to UC_Logowanie--><path d="M152.1,1503.15 C178.81,1515.14 209.93,1525 240,1525 C240,1525 240,1525 461.5,1525 C537.29,1525 622.17,1535.91 686.59,1546.47 " fill="none" id="User-to-UC_Logowanie" style="stroke:#000000;stroke-width:1.0;"/><polygon fill="#000000" points="691.58,1547.3,683.3524,1541.8864,686.6469,1546.485,682.0483,1549.7794,691.58,1547.3" style="stroke:#000000;stroke-width:1.0;"/><!--MD5=[d1103585e26c6537b80bb1feda22f46b]
link User to UC_Wylogowanie--><path d="M103.54,1511.06 C129.63,1558.32 176.56,1622 240,1622 C240,1622 240,1622 461.5,1622 C511.48,1622 645.61,1639.18 726.03,1650.12 " fill="none" id="User-to-UC_Wylogowanie" style="stroke:#000000;stroke-width:1.0;"/><polygon fill="#000000" points="731.25,1650.83,722.8683,1645.6582,726.2952,1650.1589,721.7946,1653.5858,731.25,1650.83" style="stroke:#000000;stroke-width:1.0;"/><!--MD5=[a79281274f0e6e1228fdb33741bab200]
reverse link UC_Logowanie to UC_ZmianaHasla--><path d="M906.46,1566 C1054.5,1566 1309.34,1566 1449.47,1566 " fill="none" id="UC_Logowanie-backto-UC_ZmianaHasla" style="stroke:#808080;stroke-width:1.0;stroke-dasharray:7.0,7.0;"/><polygon fill="#808080" points="901.24,1566,910.24,1570,906.24,1566,910.24,1562,901.24,1566" style="stroke:#808080;stroke-width:1.0;"/><text fill="#000000" font-family="sans-serif" font-size="13" lengthAdjust="spacing" textLength="53" x="1182.5" y="1546.4951">«extend»</text><text fill="#000000" font-family="sans-serif" font-size="13" lengthAdjust="spacing" textLength="328" x="1045" y="1562.8467">condition: tylko gdy konto ma flagę hasła tymczasowego</text><!--MD5=[740ddd72200ded12f0e281cc2976949f]
link Reporter to UC_Rep_Przegladanie--><path d="M269.15,1338.06 C336.61,1335.72 515.73,1329.5 644.98,1325.02 " fill="none" id="Reporter-to-UC_Rep_Przegladanie" style="stroke:#000000;stroke-width:1.0;"/><polygon fill="#000000" points="650.32,1324.83,641.1777,1321.1668,645.3234,1325.0156,641.4747,1329.1613,650.32,1324.83" style="stroke:#000000;stroke-width:1.0;"/><!--MD5=[aaac18ba5184332485aaa532ac46bb6c]
link Reporter to UC_Rep_Tworzenie--><path d="M269.08,1344.38 C318.6,1354.14 427.13,1375.25 519,1391 C576.4,1400.84 640.83,1410.89 692.41,1418.68 " fill="none" id="Reporter-to-UC_Rep_Tworzenie" style="stroke:#000000;stroke-width:1.0;"/><polygon fill="#000000" points="697.36,1419.43,689.0544,1414.1368,692.4155,1418.6869,687.8655,1422.048,697.36,1419.43" style="stroke:#000000;stroke-width:1.0;"/><!--MD5=[f18387a8adf4b8bac88844c9374956cd]
link UC_Rep_Tworzenie to UC_LLM_Predykcja--><path d="M902.05,1433.44 C1033.13,1433.96 1252.24,1434.82 1398.66,1435.4 " fill="none" id="UC_Rep_Tworzenie-to-UC_LLM_Predykcja" style="stroke:#0000FF;stroke-width:1.0;stroke-dasharray:7.0,7.0;"/><polygon fill="#0000FF" points="1403.84,1435.43,1394.8515,1431.4043,1398.84,1435.4157,1394.8286,1439.4043,1403.84,1435.43" style="stroke:#0000FF;stroke-width:1.0;"/><text fill="#000000" font-family="sans-serif" font-size="13" lengthAdjust="spacing" textLength="55" x="1181.5" y="1430.4951">«include»</text><!--MD5=[df83d95d377365f154e0dc45bcc5406e]
reverse link UC_LLM_Predykcja to LLM--><path d="M1701.63,1436 C1730.12,1436 1758.53,1436 1782.73,1436 " fill="none" id="UC_LLM_Predykcja-backto-LLM" style="stroke:#A80036;stroke-width:1.0;"/><polygon fill="#A80036" points="1696.32,1436,1705.32,1440,1701.32,1436,1705.32,1432,1696.32,1436" style="stroke:#A80036;stroke-width:1.0;"/><!--MD5=[77860532d41490b4f0096e16eeb8cd84]
reverse link UC_Rep_Przegladanie to UC_Rep_Filtrowanie--><path d="M932.36,1333.35 C968.7,1336.34 1007.78,1339.17 1044,1341 C1192,1348.47 1364.68,1350 1464.95,1350.17 " fill="none" id="UC_Rep_Przegladanie-backto-UC_Rep_Filtrowanie" style="stroke:#808080;stroke-width:1.0;stroke-dasharray:7.0,7.0;"/><polygon fill="#808080" points="927.02,1332.91,935.6567,1337.6436,932.0027,1333.3252,936.3211,1329.6712,927.02,1332.91" style="stroke:#808080;stroke-width:1.0;"/><text fill="#000000" font-family="sans-serif" font-size="13" lengthAdjust="spacing" textLength="53" x="1182.5" y="1337.4951">«extend»</text><!--MD5=[9b74a5461f3ecd86aa19a250bf1ea4bb]
reverse link UC_Rep_Przegladanie to UC_Rep_Sortowanie--><path d="M934.65,1311.69 C1091.98,1302.55 1339.28,1288.18 1466.83,1280.77 " fill="none" id="UC_Rep_Przegladanie-backto-UC_Rep_Sortowanie" style="stroke:#808080;stroke-width:1.0;stroke-dasharray:7.0,7.0;"/><polygon fill="#808080" points="929.56,1311.98,938.7735,1315.46,934.5519,1311.6948,938.3171,1307.4731,929.56,1311.98" style="stroke:#808080;stroke-width:1.0;"/><text fill="#000000" font-family="sans-serif" font-size="13" lengthAdjust="spacing" textLength="53" x="1182.5" y="1283.4951">«extend»</text><!--MD5=[11a31d25b8543b34928eb8717fb20280]
link Support to UC_Sup_Przegladanie--><path d="M380.19,973.4 C389.15,964.56 399.66,954.9 410,947 C454.83,912.77 466.95,903.73 519,882 C550.47,868.86 585.05,857.66 618.66,848.33 " fill="none" id="Support-to-UC_Sup_Przegladanie" style="stroke:#000000;stroke-width:1.0;"/><polygon fill="#000000" points="623.61,846.96,613.8713,845.4909,618.7892,848.2864,615.9936,853.2043,623.61,846.96" style="stroke:#000000;stroke-width:1.0;"/><!--MD5=[5e66708505b65c7b4b710102e56dbdc6]
link Support to UC_Sup_Przypinanie--><path d="M380.08,985.43 C389.21,980.82 399.84,976.07 410,973 C505.02,944.26 618.21,931.02 696.1,924.97 " fill="none" id="Support-to-UC_Sup_Przypinanie" style="stroke:#000000;stroke-width:1.0;"/><polygon fill="#000000" points="701.18,924.58,691.8983,921.2861,696.1949,924.9657,692.5153,929.2623,701.18,924.58" style="stroke:#000000;stroke-width:1.0;"/><!--MD5=[533b6e1ae63e0b62071dc60f98b8f0a7]
link Support to UC_Sup_Zmiana--><path d="M380.24,999 C437.14,999 582.09,999 683.23,999 " fill="none" id="Support-to-UC_Sup_Zmiana" style="stroke:#000000;stroke-width:1.0;"/><polygon fill="#000000" points="688.32,999,679.32,995,683.32,999,679.32,1003,688.32,999" style="stroke:#000000;stroke-width:1.0;"/><!--MD5=[eb8f9b8b02cf502b9f5db0e2f39233f7]
link Support to UC_Sup_Edycja--><path d="M380.12,1005.79 C411.78,1014.5 469.18,1029.6 519,1039 C584.17,1051.3 658.95,1060.91 713.34,1067.1 " fill="none" id="Support-to-UC_Sup_Edycja" style="stroke:#000000;stroke-width:1.0;"/><polygon fill="#000000" points="718.54,1067.68,710.0415,1062.7025,713.5711,1067.1231,709.1505,1070.6528,718.54,1067.68" style="stroke:#000000;stroke-width:1.0;"/><!--MD5=[4c7484ab45946715a9480eeef024f02a]
link Support to UC_Sup_Usuwanie--><path d="M380.12,1020.09 C410.42,1045.43 465.02,1087.34 519,1110 C556.98,1125.94 599.96,1137.27 640.31,1145.28 " fill="none" id="Support-to-UC_Sup_Usuwanie" style="stroke:#000000;stroke-width:1.0;"/><polygon fill="#000000" points="645.22,1146.24,637.1538,1140.5888,640.3127,1145.2814,635.6201,1148.4404,645.22,1146.24" style="stroke:#000000;stroke-width:1.0;"/><!--MD5=[efc7f7cf423666cab4f1a496f8a8e5aa]
link UC_Sup_Przypinanie to UC_Sup_Weryfikacja--><path d="M882.12,921.32 C1023,923.36 1293.86,927.3 1443.39,929.47 " fill="none" id="UC_Sup_Przypinanie-to-UC_Sup_Weryfikacja" style="stroke:#0000FF;stroke-width:1.0;stroke-dasharray:7.0,7.0;"/><polygon fill="#0000FF" points="1448.66,929.54,1439.7181,925.4118,1443.6605,929.4686,1439.6038,933.411,1448.66,929.54" style="stroke:#0000FF;stroke-width:1.0;"/><text fill="#000000" font-family="sans-serif" font-size="13" lengthAdjust="spacing" textLength="55" x="1181.5" y="920.4951">«include»</text><!--MD5=[f7e8de47b43d4ac7d352da810e823cf4]
reverse link UC_Sup_Przegladanie to UC_Sup_Filtrowanie--><path d="M1012.62,825.21 C1023.23,825.82 1033.73,826.42 1044,827 C1192.36,835.37 1365.28,844.48 1465.44,849.68 " fill="none" id="UC_Sup_Przegladanie-backto-UC_Sup_Filtrowanie" style="stroke:#808080;stroke-width:1.0;stroke-dasharray:7.0,7.0;"/><polygon fill="#808080" points="1007.41,824.91,1016.1671,829.4169,1012.4019,825.1952,1016.6235,821.43,1007.41,824.91" style="stroke:#808080;stroke-width:1.0;"/><text fill="#000000" font-family="sans-serif" font-size="13" lengthAdjust="spacing" textLength="53" x="1182.5" y="823.4951">«extend»</text><!--MD5=[904ad2c631d2f02a9c8c8acd6ce06586]
reverse link UC_Sup_Przegladanie to UC_Sup_Sortowanie--><path d="M1015.69,802.23 C1166.28,795.67 1356.22,787.4 1464,782.7 " fill="none" id="UC_Sup_Przegladanie-backto-UC_Sup_Sortowanie" style="stroke:#808080;stroke-width:1.0;stroke-dasharray:7.0,7.0;"/><polygon fill="#808080" points="1010.35,802.47,1019.513,806.081,1015.3454,802.2559,1019.1705,798.0883,1010.35,802.47" style="stroke:#808080;stroke-width:1.0;"/><text fill="#000000" font-family="sans-serif" font-size="13" lengthAdjust="spacing" textLength="53" x="1182.5" y="783.4951">«extend»</text><!--MD5=[0d501656fcac65131cb6c7dd8febe303]
link Admin to UC_Adm_Tworzenie--><path d="M462.75,428.45 C466.07,347.8 477.94,174.43 519,134 C562.47,91.19 630.37,80.76 687.26,80.99 " fill="none" id="Admin-to-UC_Adm_Tworzenie" style="stroke:#000000;stroke-width:1.0;"/><polygon fill="#000000" points="692.38,81.04,683.4263,76.9374,687.3803,80.9829,683.3349,84.9369,692.38,81.04" style="stroke:#000000;stroke-width:1.0;"/><!--MD5=[989f32b34d556a6bddb6819209b72185]
link Admin to UC_Adm_Edycja--><path d="M465.19,428.46 C471.84,363.59 488.12,242.67 519,214 C566.19,170.18 639.33,161.57 697.66,163.16 " fill="none" id="Admin-to-UC_Adm_Edycja" style="stroke:#000000;stroke-width:1.0;"/><polygon fill="#000000" points="702.9,163.33,694.0428,159.0231,697.903,163.1582,693.7679,167.0184,702.9,163.33" style="stroke:#000000;stroke-width:1.0;"/><!--MD5=[683cab824375217990a02189ecdd6a55]
link Admin to UC_Adm_Usuwanie--><path d="M463.43,428.28 C467.66,388.31 480.52,329.43 519,297 C564.39,258.75 629.93,248.08 685.12,247.17 " fill="none" id="Admin-to-UC_Adm_Usuwanie" style="stroke:#000000;stroke-width:1.0;"/><polygon fill="#000000" points="690.43,247.11,681.3849,243.2131,685.4303,247.1671,681.4763,251.2126,690.43,247.11" style="stroke:#000000;stroke-width:1.0;"/><!--MD5=[392d73cfa7507dde0ef5242d300768dc]
link Admin to UC_Adm_Statystyki--><path d="M479.31,428.31 C488.67,411.31 501.83,393.08 519,382 C564.27,352.79 622.48,341.21 673.3,337.38 " fill="none" id="Admin-to-UC_Adm_Statystyki" style="stroke:#000000;stroke-width:1.0;"/><polygon fill="#000000" points="678.51,337.01,669.2472,333.6633,673.5228,337.3673,669.8188,341.6428,678.51,337.01" style="stroke:#000000;stroke-width:1.0;"/><!--MD5=[ce01c51eea747e5cd01a0980b9543ca0]
link Admin to UC_Adm_Lista--><path d="M480.07,467.51 C518.85,462.31 610.93,449.96 684.62,440.07 " fill="none" id="Admin-to-UC_Adm_Lista" style="stroke:#000000;stroke-width:1.0;"/><polygon fill="#000000" points="689.89,439.36,680.4346,436.6042,684.9352,440.0311,681.5083,444.5318,689.89,439.36" style="stroke:#000000;stroke-width:1.0;"/><!--MD5=[9a69ce293d20ad7b60882960e4cad147]
link Admin to UC_Adm_Kategorie--><path d="M480.07,472.49 C517.99,477.58 606.87,489.5 679.69,499.27 " fill="none" id="Admin-to-UC_Adm_Kategorie" style="stroke:#000000;stroke-width:1.0;"/><polygon fill="#000000" points="684.9,499.97,676.5183,494.7982,679.9452,499.2989,675.4446,502.7258,684.9,499.97" style="stroke:#000000;stroke-width:1.0;"/><!--MD5=[b9f9995d79bba97afb87960309ea9862]
link Admin to UC_Adm_Dzialy--><path d="M479.23,511.81 C488.58,528.83 501.75,547.04 519,558 C573.31,592.49 646.01,601.1 702.37,601.57 " fill="none" id="Admin-to-UC_Adm_Dzialy" style="stroke:#000000;stroke-width:1.0;"/><polygon fill="#000000" points="707.43,601.59,698.453,597.5386,702.4301,601.5614,698.4073,605.5385,707.43,601.59" style="stroke:#000000;stroke-width:1.0;"/><!--MD5=[e0c8ffcad05abbff497f7145808a8daf]
link Admin to UC_Adm_Usuwanie_Zgloszenia--><path d="M464.58,511.8 C469.68,549.36 483.2,603.07 519,633 C560.9,668.04 619.61,680.5 671.64,683.59 " fill="none" id="Admin-to-UC_Adm_Usuwanie_Zgloszenia" style="stroke:#000000;stroke-width:1.0;"/><polygon fill="#000000" points="676.65,683.86,667.8673,679.403,671.6566,683.6032,667.4564,687.3925,676.65,683.86" style="stroke:#000000;stroke-width:1.0;"/><!--MD5=[20e4aa84659d69c7d8569f907bae8f45]
@startuml
left to right direction

skinparam arrow {
  Color<<assoc>> Black
  Color<<extend>> Gray
  Color<<include>> Blue
}

actor "Zalogowany użytkownik" as User <<abstract>>
actor Reporter
actor Support
actor Admin
actor LLM <<system zewnętrzny>>

Reporter -up-|> User
Support -up-|> User
Admin -up-|> Support

Reporter -[hidden]down-> Support
Support -[hidden]down-> Admin

rectangle "HelpDesk System" {

  together {
    usecase UC_Logowanie as "Logowanie
    - -
    extension points
    wymuszona zmiana hasła"
    usecase "Wymuszona zmiana hasła" as UC_ZmianaHasla
    usecase "Wylogowanie" as UC_Wylogowanie
  }

  together {
    usecase UC_Rep_Przegladanie as "Przeglądanie własnych zgłoszeń
    - -
    extension points
    filtrowanie
    sortowanie"
    usecase "Tworzenie nowego zgłoszenia" as UC_Rep_Tworzenie
    usecase "Predykcja kategorii i priorytetu zgłoszenia" as UC_LLM_Predykcja
    usecase "Filtrowanie zgłoszeń" as UC_Rep_Filtrowanie
    usecase "Sortowanie zgłoszeń" as UC_Rep_Sortowanie
  }

  together {
    usecase UC_Sup_Przegladanie as "Przeglądanie zgłoszeń (w tym przypisanych do siebie)
    - -
    extension points
    filtrowanie
    sortowanie"
    usecase "Przypinanie zgłoszenia" as UC_Sup_Przypinanie
    usecase "Weryfikacja predykcji LLM" as UC_Sup_Weryfikacja
    usecase "Zmiana statusu zgłoszenia" as UC_Sup_Zmiana
    usecase "Edycja zgłoszenia" as UC_Sup_Edycja
    usecase "Usuwanie przypisanego, zamkniętego zgłoszenia" as UC_Sup_Usuwanie
    usecase "Filtrowanie zgłoszeń " as UC_Sup_Filtrowanie
    usecase "Sortowanie zgłoszeń " as UC_Sup_Sortowanie
  }

  together {
    usecase "Tworzenie konta użytkownika" as UC_Adm_Tworzenie
    usecase "Edycja konta użytkownika" as UC_Adm_Edycja
    usecase "Usuwanie konta użytkownika" as UC_Adm_Usuwanie
    usecase "Przeglądanie panelu statystyk" as UC_Adm_Statystyki
    usecase "Przeglądanie listy użytkowników" as UC_Adm_Lista
    usecase "Zarządzanie kategoriami zgłoszeń" as UC_Adm_Kategorie
    usecase "Zarządzanie działami" as UC_Adm_Dzialy
    usecase "Usuwanie dowolnego zgłoszenia" as UC_Adm_Usuwanie_Zgloszenia
  }
}

User - -> UC_Logowanie <<assoc>>
User - -> UC_Wylogowanie <<assoc>>
UC_Logowanie <.[#Gray]. UC_ZmianaHasla : <<extend>>\ncondition: tylko gdy konto ma flagę hasła tymczasowego

Reporter - -> UC_Rep_Przegladanie <<assoc>>
Reporter - -> UC_Rep_Tworzenie <<assoc>>
UC_Rep_Tworzenie .[#Blue].> UC_LLM_Predykcja : <<include>>
UC_LLM_Predykcja <- - LLM

UC_Rep_Przegladanie <.[#Gray]. UC_Rep_Filtrowanie : <<extend>>
UC_Rep_Przegladanie <.[#Gray]. UC_Rep_Sortowanie : <<extend>>

Support - -> UC_Sup_Przegladanie <<assoc>>
Support - -> UC_Sup_Przypinanie <<assoc>>
Support - -> UC_Sup_Zmiana <<assoc>>
Support - -> UC_Sup_Edycja <<assoc>>
Support - -> UC_Sup_Usuwanie <<assoc>>
UC_Sup_Przypinanie .[#Blue].> UC_Sup_Weryfikacja : <<include>>

UC_Sup_Przegladanie <.[#Gray]. UC_Sup_Filtrowanie : <<extend>>
UC_Sup_Przegladanie <.[#Gray]. UC_Sup_Sortowanie : <<extend>>

Admin - -> UC_Adm_Tworzenie <<assoc>>
Admin - -> UC_Adm_Edycja <<assoc>>
Admin - -> UC_Adm_Usuwanie <<assoc>>
Admin - -> UC_Adm_Statystyki <<assoc>>
Admin - -> UC_Adm_Lista <<assoc>>
Admin - -> UC_Adm_Kategorie <<assoc>>
Admin - -> UC_Adm_Dzialy <<assoc>>
Admin - -> UC_Adm_Usuwanie_Zgloszenia <<assoc>>

@enduml

PlantUML version 1.2021.00(Sun Jan 10 11:25:05 CET 2021)
(MIT source distribution)
Java Runtime: Java(TM) SE Runtime Environment
JVM: Java HotSpot(TM) 64-Bit Server VM
Default Encoding: UTF-8
Language: pl
Country: PL
--></g></svg>